<svg xmlns="http://www.w3.org/2000/svg" xmlns:svg="http://www.w3.org/2000/svg" id="svg5" width="1024" height="1024" version="1.1" viewBox="0 0 270.933 270.933"><g id="layer1"><rect style="fill:#000;stroke-width:.264583" id="rect95" width="270.933" height="270.933" x="0" y="0"/><g id="layer1-6" transform="matrix(0.27018469,0,0,0.27018469,97.167845,98.865648)" style="display:inline"><path id="path35" d="M 512,62 A 449.99999,449.99999 0 0 0 62,512 449.99999,449.99999 0 0 0 512,962 V 837 A 325.00001,325.00001 0 0 1 187,512 325.00001,325.00001 0 0 1 512,187 325.00001,325.00001 0 0 1 837,512 H 962 A 449.99999,449.99999 0 0 0 512,62 Z" transform="scale(0.26458333)" style="fill:#0052ff;fill-opacity:1;fill-rule:evenodd;stroke-width:1.92974"/><path style="opacity:1;fill:#0052ff;fill-opacity:1" id="path4381" d="m 512,962 -108.25318,-187.5 216.50635,0 z" transform="matrix(0.26885278,0,0,0.18485555,100.34009,-7.7039563)"/></g></g></svg>