<svg xmlns="http://www.w3.org/2000/svg" xmlns:svg="http://www.w3.org/2000/svg" id="svg5" width="1024" height="1024" version="1.1" viewBox="0 0 270.933 270.933"><g id="layer1" style="display:inline"><path id="path35" d="M 512 62 A 449.99999 449.99999 0 0 0 62 512 A 449.99999 449.99999 0 0 0 512 962 L 512 837 A 325.00001 325.00001 0 0 1 187 512 A 325.00001 325.00001 0 0 1 512 187 A 325.00001 325.00001 0 0 1 837 512 L 962 512 A 449.99999 449.99999 0 0 0 512 62 z" transform="scale(0.26458333)" style="fill:#0052ff;fill-opacity:1;fill-rule:evenodd;stroke-width:1.92974"/><path style="opacity:1;fill:#0052ff;fill-opacity:1" id="path4381" d="m 512,962 -108.25318,-187.5 216.50635,0 z" transform="matrix(0.26885278,0,0,0.18485555,100.34009,-7.7039563)"/></g></svg>